<svg width="25" height="24" viewBox="0 0 25 24" fill="none" xmlns="http://www.w3.org/2000/svg">
<path d="M12.0029 22.75C6.07293 22.75 1.25293 17.93 1.25293 12C1.25293 6.07 6.07293 1.25 12.0029 1.25C17.9329 1.25 22.7529 6.07 22.7529 12C22.7529 17.93 17.9329 22.75 12.0029 22.75ZM12.0029 2.75C6.90293 2.75 2.75293 6.9 2.75293 12C2.75293 17.1 6.90293 21.25 12.0029 21.25C17.1029 21.25 21.2529 17.1 21.2529 12C21.2529 6.9 17.1029 2.75 12.0029 2.75Z" fill="#848C97"/>
<path d="M12.0029 17.4701C10.6029 17.4701 9.20287 16.9401 8.13287 15.8701C7.85287 15.5901 7.60286 15.2801 7.37286 14.9101C7.15286 14.5601 7.26285 14.1001 7.61285 13.8801C7.96285 13.6601 8.42288 13.7701 8.64288 14.1201C8.81288 14.4001 8.99287 14.6201 9.19287 14.8201C10.7429 16.3701 13.2629 16.3701 14.8129 14.8201C15.4129 14.2201 15.7929 13.4401 15.9229 12.5701C15.9829 12.1601 16.3629 11.8601 16.7729 11.9301C17.1829 11.9901 17.4629 12.3701 17.4129 12.7801C17.2429 13.9701 16.7129 15.0401 15.8829 15.8801C14.8029 16.9401 13.4029 17.4701 12.0029 17.4701Z" fill="#848C97"/>
<path d="M7.34283 12.08C7.30283 12.08 7.27284 12.08 7.23284 12.07C6.82284 12.01 6.53283 11.6299 6.59283 11.2199C6.76283 10.0299 7.29283 8.95996 8.12283 8.11996C10.2528 5.98996 13.7228 5.98996 15.8628 8.11996C16.1428 8.39996 16.3928 8.70999 16.6228 9.08999C16.8428 9.43999 16.7328 9.89996 16.3828 10.12C16.0328 10.34 15.5728 10.23 15.3528 9.87997C15.1828 9.60997 15.0028 9.37996 14.8028 9.17996C13.2528 7.62996 10.7328 7.62996 9.18282 9.17996C8.58282 9.77996 8.20284 10.56 8.07284 11.43C8.03284 11.81 7.71283 12.08 7.34283 12.08Z" fill="#848C97"/>
<path d="M7.82324 17.9297C7.41324 17.9297 7.07324 17.5897 7.07324 17.1797V14.5098C7.07324 14.0998 7.41324 13.7598 7.82324 13.7598H10.4932C10.9032 13.7598 11.2432 14.0998 11.2432 14.5098C11.2432 14.9198 10.9032 15.2598 10.4932 15.2598C9.43285 15.2598 8.57324 16.1194 8.57324 17.1797C8.57324 17.5897 8.24324 17.9297 7.82324 17.9297Z" fill="#848C97"/>
<path d="M16.1827 10.2403H13.5127C13.1027 10.2403 12.7627 9.9003 12.7627 9.4903C12.7627 9.0803 13.1027 8.7403 13.5127 8.7403C14.5731 8.7403 15.4327 7.88069 15.4327 6.82031C15.4327 6.41031 15.7727 6.07031 16.1827 6.07031C16.5927 6.07031 16.9327 6.41031 16.9327 6.82031V9.4903C16.9327 9.9103 16.5927 10.2403 16.1827 10.2403Z" fill="#848C97"/>
</svg>