<svg width="25" height="24" viewBox="0 0 25 24" fill="none" xmlns="http://www.w3.org/2000/svg">
<path d="M13.8737 16.2502H12.0103C10.692 16.2502 9.61157 15.1302 9.61157 13.7502C9.61157 13.3402 9.94858 13.0002 10.355 13.0002C10.7614 13.0002 11.0984 13.3402 11.0984 13.7502C11.0984 14.3002 11.5048 14.7502 12.0103 14.7502H13.8737C14.2603 14.7502 14.5676 14.4002 14.5676 13.9702C14.5676 13.4302 14.4189 13.3502 14.0819 13.2302L11.0984 12.1802C10.464 11.9602 9.61157 11.4902 9.61157 10.0202C9.61157 8.77023 10.5929 7.74023 11.7922 7.74023H13.6557C14.974 7.74023 16.0544 8.86023 16.0544 10.2402C16.0544 10.6502 15.7174 10.9902 15.311 10.9902C14.9046 10.9902 14.5676 10.6502 14.5676 10.2402C14.5676 9.69023 14.1612 9.24023 13.6557 9.24023H11.7922C11.4057 9.24023 11.0984 9.59023 11.0984 10.0202C11.0984 10.5602 11.247 10.6402 11.5841 10.7602L14.5676 11.8102C15.202 12.0302 16.0544 12.5002 16.0544 13.9702C16.0544 15.2302 15.0731 16.2502 13.8737 16.2502Z" fill="#848C97"/>
<path d="M12.833 17.25C12.4266 17.25 12.0896 16.91 12.0896 16.5V7.5C12.0896 7.09 12.4266 6.75 12.833 6.75C13.2394 6.75 13.5764 7.09 13.5764 7.5V16.5C13.5764 16.91 13.2394 17.25 12.833 17.25Z" fill="#848C97"/>
<path d="M12.8329 22.75C6.95509 22.75 2.17749 17.93 2.17749 12C2.17749 6.07 6.95509 1.25 12.8329 1.25C13.2393 1.25 13.5763 1.59 13.5763 2C13.5763 2.41 13.2393 2.75 12.8329 2.75C7.77778 2.75 3.66429 6.9 3.66429 12C3.66429 17.1 7.77778 21.25 12.8329 21.25C17.888 21.25 22.0015 17.1 22.0015 12C22.0015 11.59 22.3385 11.25 22.7449 11.25C23.1513 11.25 23.4883 11.59 23.4883 12C23.4883 17.93 18.7107 22.75 12.8329 22.75Z" fill="#848C97"/>
<path d="M21.7536 7.75H17.7888C17.3824 7.75 17.0454 7.41 17.0454 7V3C17.0454 2.59 17.3824 2.25 17.7888 2.25C18.1952 2.25 18.5322 2.59 18.5322 3V6.25H21.7536C22.16 6.25 22.497 6.59 22.497 7C22.497 7.41 22.16 7.75 21.7536 7.75Z" fill="#848C97"/>
<path d="M17.7888 7.74994C17.6004 7.74994 17.4121 7.67994 17.2634 7.52994C16.976 7.23994 16.976 6.75994 17.2634 6.46994L22.2194 1.46994C22.5069 1.17994 22.9827 1.17994 23.2701 1.46994C23.5576 1.75994 23.5576 2.23994 23.2701 2.52994L18.3141 7.52994C18.1654 7.67994 17.9771 7.74994 17.7888 7.74994Z" fill="#848C97"/>
</svg>