<svg xmlns="http://www.w3.org/2000/svg" xmlns:xlink="http://www.w3.org/1999/xlink" width="500" zoomAndPan="magnify" viewBox="0 0 375 374.999991" height="500" preserveAspectRatio="xMidYMid meet" version="1.0"><defs><clipPath id="b47fb5e8e8"><path d="M 116.742188 115.53125 L 169 115.53125 L 169 168 L 116.742188 168 Z M 116.742188 115.53125 " clip-rule="nonzero"/></clipPath><clipPath id="a8369f434d"><path d="M 213 209 L 258.492188 209 L 258.492188 254 L 213 254 Z M 213 209 " clip-rule="nonzero"/></clipPath><clipPath id="40cb8b8ec9"><path d="M 130 250 L 155 250 L 155 274.53125 L 130 274.53125 Z M 130 250 " clip-rule="nonzero"/></clipPath></defs><g clip-path="url(#b47fb5e8e8)"><path fill="#ffbd1f" d="M 142.566406 167.402344 C 156.851562 167.402344 168.476562 155.808594 168.476562 141.5625 C 168.476562 127.3125 156.851562 115.71875 142.566406 115.71875 C 128.277344 115.71875 116.652344 127.3125 116.652344 141.5625 C 116.652344 155.808594 128.277344 167.402344 142.566406 167.402344 Z M 142.566406 122.851562 C 152.910156 122.851562 161.328125 131.242188 161.328125 141.5625 C 161.328125 151.875 152.910156 160.269531 142.566406 160.269531 C 132.21875 160.269531 123.804688 151.878906 123.804688 141.5625 C 123.804688 131.246094 132.21875 122.851562 142.566406 122.851562 Z M 142.566406 122.851562 " fill-opacity="1" fill-rule="nonzero"/></g><g clip-path="url(#a8369f434d)"><path fill="#ffbd1f" d="M 236.167969 209.003906 C 223.90625 209.003906 213.929688 218.953125 213.929688 231.179688 C 213.929688 243.40625 223.90625 253.351562 236.167969 253.351562 C 248.425781 253.351562 258.402344 243.40625 258.402344 231.179688 C 258.402344 218.953125 248.425781 209.003906 236.167969 209.003906 Z M 236.167969 246.222656 C 227.847656 246.222656 221.078125 239.476562 221.078125 231.179688 C 221.078125 222.886719 227.847656 216.136719 236.167969 216.136719 C 244.484375 216.136719 251.253906 222.886719 251.253906 231.179688 C 251.253906 239.472656 244.484375 246.222656 236.167969 246.222656 Z M 236.167969 246.222656 " fill-opacity="1" fill-rule="nonzero"/></g><path fill="#14c4ed" d="M 210.640625 152.339844 C 217.25 152.339844 222.632812 146.972656 222.632812 140.378906 C 222.632812 133.785156 217.25 128.421875 210.640625 128.421875 C 204.027344 128.421875 198.644531 133.785156 198.644531 140.378906 C 198.644531 146.972656 204.023438 152.339844 210.640625 152.339844 Z M 210.640625 135.550781 C 213.308594 135.550781 215.480469 137.71875 215.480469 140.378906 C 215.480469 143.042969 213.308594 145.210938 210.640625 145.210938 C 207.96875 145.210938 205.796875 143.042969 205.796875 140.378906 C 205.796875 137.71875 207.96875 135.550781 210.640625 135.550781 Z M 210.640625 135.550781 " fill-opacity="1" fill-rule="nonzero"/><path fill="#14c4ed" d="M 148.015625 204.175781 C 148.015625 197.582031 142.632812 192.21875 136.023438 192.21875 C 129.410156 192.21875 124.03125 197.582031 124.03125 204.175781 C 124.03125 210.769531 129.410156 216.136719 136.023438 216.136719 C 142.632812 216.136719 148.015625 210.769531 148.015625 204.175781 Z M 131.179688 204.175781 C 131.179688 201.515625 133.351562 199.347656 136.023438 199.347656 C 138.691406 199.347656 140.863281 201.515625 140.863281 204.175781 C 140.863281 206.839844 138.691406 209.007812 136.023438 209.007812 C 133.351562 209.007812 131.179688 206.839844 131.179688 204.175781 Z M 131.179688 204.175781 " fill-opacity="1" fill-rule="nonzero"/><g clip-path="url(#40cb8b8ec9)"><path fill="#14c4ed" d="M 142.566406 250.246094 C 135.953125 250.246094 130.574219 255.613281 130.574219 262.207031 C 130.574219 268.800781 135.953125 274.167969 142.566406 274.167969 C 149.175781 274.167969 154.558594 268.800781 154.558594 262.207031 C 154.558594 255.613281 149.175781 250.246094 142.566406 250.246094 Z M 142.566406 267.035156 C 139.894531 267.035156 137.722656 264.871094 137.722656 262.207031 C 137.722656 259.542969 139.894531 257.378906 142.566406 257.378906 C 145.234375 257.378906 147.40625 259.542969 147.40625 262.207031 C 147.40625 264.871094 145.234375 267.035156 142.566406 267.035156 Z M 142.566406 267.035156 " fill-opacity="1" fill-rule="nonzero"/></g><path fill="#d9d9d9" d="M 217.316406 214.84375 C 218.578125 213.328125 218.363281 211.082031 216.84375 209.828125 L 205.984375 200.859375 C 207.042969 198.714844 207.652344 196.3125 207.652344 193.769531 C 207.652344 188 204.59375 182.941406 200.019531 180.082031 L 207.460938 158.101562 C 208.09375 156.238281 207.089844 154.214844 205.21875 153.582031 C 203.347656 152.953125 201.320312 153.953125 200.691406 155.820312 L 193.273438 177.722656 C 192.675781 177.65625 192.066406 177.613281 191.453125 177.613281 C 188.398438 177.613281 185.554688 178.472656 183.113281 179.941406 L 169.496094 163.28125 C 168.246094 161.753906 165.996094 161.527344 164.464844 162.769531 C 162.933594 164.015625 162.707031 166.261719 163.953125 167.785156 L 177.929688 184.890625 C 176.382812 187.226562 175.441406 189.984375 175.289062 192.949219 L 152.917969 197.871094 C 150.988281 198.292969 149.769531 200.199219 150.195312 202.121094 C 150.5625 203.785156 152.042969 204.917969 153.683594 204.917969 C 153.9375 204.917969 154.199219 204.890625 154.457031 204.832031 L 176.5 199.984375 C 177.484375 202.332031 179.015625 204.390625 180.921875 206.023438 L 150.839844 245.574219 C 149.644531 247.144531 149.953125 249.382812 151.527344 250.570312 C 152.171875 251.058594 152.933594 251.296875 153.683594 251.296875 C 154.765625 251.296875 155.832031 250.8125 156.535156 249.886719 L 187.34375 209.378906 C 188.660156 209.722656 190.03125 209.925781 191.453125 209.925781 C 195.25 209.925781 198.738281 208.605469 201.503906 206.417969 L 212.285156 215.316406 C 212.953125 215.871094 213.757812 216.136719 214.5625 216.136719 C 215.589844 216.136719 216.609375 215.695312 217.316406 214.84375 Z M 191.453125 202.792969 C 186.460938 202.792969 182.402344 198.746094 182.402344 193.769531 C 182.402344 188.792969 186.460938 184.742188 191.453125 184.742188 C 196.441406 184.742188 200.5 188.792969 200.5 193.769531 C 200.5 198.746094 196.441406 202.792969 191.453125 202.792969 Z M 191.453125 202.792969 " fill-opacity="1" fill-rule="nonzero"/></svg>