<?xml version="1.0" encoding="UTF-8" standalone="no"?> <svg xmlns="http://www.w3.org/2000/svg" viewBox="0 0 64 64"><g id="Cloud-ladder-stair-reward"><path d="M16.02,22.19a17,17,0,0,1,28.27-5.93A14.23,14.23,0,0,1,47,16a14,14,0,0,1,0,28H14a11,11,0,0,1,0-22A10.4,10.4,0,0,1,16.02,22.19Z" style="fill:#2488ff"/><path d="M39,6v7a4,4,0,0,1-4-4V6Z" style="fill:#ffc477"/><path d="M57,6V9a4,4,0,0,1-4,4V6Z" style="fill:#ffc477"/><rect x="41" y="27" width="10" height="3" style="fill:#e0e0e2"/><path d="M53,3V14a6.893,6.893,0,0,1-.7,3.04A6.985,6.985,0,0,1,48,20.71V27H44V20.7A6.984,6.984,0,0,1,39,14V3Z" style="fill:#ffda44"/><circle cx="46" cy="10" r="4" style="fill:#fff"/><path d="M53.585,16.525A7.937,7.937,0,0,0,54,14v-.1A5.009,5.009,0,0,0,58,9V6a1,1,0,0,0-1-1H54V4h1V2H37V4h1V5H35a1,1,0,0,0-1,1V9a4.959,4.959,0,0,0,.14,1.13A17.958,17.958,0,0,0,15.393,21.084c-.062-.007-.123-.011-.185-.017-.175-.022-.341-.035-.529-.046C14.453,21.01,14.226,21,14,21a12,12,0,0,0,0,24V62h2V60H28v2h2V45H47a15,15,0,0,0,6.585-28.475ZM56,7V9a3.006,3.006,0,0,1-2,2.829V7ZM52,4V14a6,6,0,0,1-12,0V4ZM50,29H42V28h8Zm-5-3V21.931a7.281,7.281,0,0,0,2,0V26ZM36,7h2v4.829A3.006,3.006,0,0,1,36,9ZM16,48H28v4H16Zm0,10V54H28v4ZM28,46H16V45H28ZM16,36H28v4H16Zm0,6H28v1H16Zm31,1H30V32H28v2H16V32H14V43a10,10,0,0,1,0-20c.337,0,.672.022,1,.055l.153.014c.19.022.376.061.564.094.025,0,.052.009.078.015v0A9.969,9.969,0,0,1,21.687,26.6l1.537-1.28A11.968,11.968,0,0,0,17.38,21.5,16.047,16.047,0,0,1,32,12a15.781,15.781,0,0,1,3.327.365A4.989,4.989,0,0,0,38,13.9V14a8.009,8.009,0,0,0,5,7.411V26H41a1,1,0,0,0-1,1v2H38v2H54V29H52V27a1,1,0,0,0-1-1H49V21.411a8.04,8.04,0,0,0,3.719-3.084A13,13,0,0,1,47,43Z"/><path d="M46,15a5,5,0,1,0-5-5A5.006,5.006,0,0,0,46,15Zm0-8a3,3,0,1,1-3,3A3,3,0,0,1,46,7Z"/></g></svg>